# xmcd CD database file
#
# Track frame offsets:
#	150
#	15833
#	31368
#	47538
#	65348
#	88853
#	109458
#	128798
#	148438
#	176160
#	198730
#	221223
#
# Disc length: 3237 seconds
#
# Revision: 1
# Processed by: cddbd v1.5PL3 Copyright (c) Steve Scherf et al.
# Submitted via: CDex 1.50
#
DISCID=b80ca30c
DTITLE=Robben Ford - Keep On Running
DYEAR=2003
DGENRE=Blues
TTITLE0=Keen On Running
TTITLE1=Over My Head
TTITLE2=Homework
TTITLE3=Badge
TTITLE4=Peace Love and Understanding
TTITLE5=Cannonball Shuffle (For Freddie King)
TTITLE6=Lifetime Thing
TTITLE7=Bonnie
TTITLE8=Me And My Woman
TTITLE9=For The Love Of Money
TTITLE10=Hand In Hand With The Blues
TTITLE11=My Time For Awhile (Bonus Track)
EXTD=YEAR: 2003/09/27
EXTT0=
EXTT1=
EXTT2=
EXTT3=
EXTT4=
EXTT5=
EXTT6=
EXTT7=
EXTT8=
EXTT9=
EXTT10=
EXTT11=
PLAYORDER=
